<svg xmlns="http://www.w3.org/2000/svg" viewBox="0 0 1024 1024" width="1024" height="1024">
  <!-- 背景 -->
  <rect width="1024" height="1024" fill="#fbfaf6"/>

  <!-- 船体メインハル -->
  <path d="M 88,524
           C 110,480 170,452 210,452
           L 872,452
           L 934,488
           L 934,580
           L 210,590
           C 160,590 110,558 88,524 Z"
        fill="#3f6b54"/>

  <!-- 前砲塔台座 -->
  <rect x="258" y="428" width="114" height="28" rx="5" fill="#3f6b54"/>

  <!-- 前砲身（2本） -->
  <rect x="64" y="434" width="208" height="12" rx="6" fill="#3f6b54"/>
  <rect x="64" y="452" width="208" height="12" rx="6" fill="#3f6b54"/>

  <!-- 艦橋（台形） -->
  <path d="M 472,452 L 494,282 L 574,282 L 600,452 Z" fill="#3f6b54"/>

  <!-- 煙突 -->
  <rect x="620" y="346" width="42" height="108" rx="6" fill="#3f6b54"/>

  <!-- 後砲塔台座 -->
  <rect x="696" y="428" width="106" height="28" rx="5" fill="#3f6b54"/>

  <!-- 後砲身（2本） -->
  <rect x="800" y="434" width="168" height="12" rx="6" fill="#3f6b54"/>
  <rect x="800" y="452" width="168" height="12" rx="6" fill="#3f6b54"/>
</svg>
